<?xml version="1.0"?>
<svg xmlns="http://www.w3.org/2000/svg" height="512px" viewBox="0 0 512.00004 512" width="512px"><path d="m354.476562 84.023438 21.433594-21.433594 21.429688 21.433594-21.429688 21.429687zm0 0" fill="#FFFFFF"/><path d="m288.398438 83.664062 21.429687-21.429687 21.433594 21.429687-21.433594 21.433594zm0 0" fill="#FFFFFF"/><path d="m320.902344 130.457031 21.429687-21.429687 21.433594 21.429687-21.433594 21.433594zm0 0" fill="#FFFFFF"/><path d="m467.6875 44.3125c-59.085938-59.082031-155.222656-59.082031-214.304688 0-29.515624 29.511719-61.527343 85.128906-79.660156 138.394531-10.253906 30.117188-15.503906 57.355469-15.605468 80.953125-.039063 8.472656.617187 16.382813 1.921874 23.738282l-67.054687 67.050781c-22.105469-18.96875-55.550781-17.988281-76.484375 2.945312-10.640625 10.640625-16.5 24.785157-16.5 39.832031 0 15.046876 5.859375 29.191407 16.5 39.828126 11.535156 11.539062 26.867188 17.011718 42.015625 16.433593-.585937 15.144531 4.890625 30.476563 16.429687 42.015625 10.980469 10.980469 25.40625 16.472656 39.828126 16.472656 14.425781 0 28.851562-5.492187 39.832031-16.472656 10.640625-10.640625 16.5-24.785156 16.5-39.832031 0-13.59375-4.785157-26.453125-13.554688-36.65625l67.050781-67.050781c7.160157 1.265625 14.835938 1.921875 23.054688 1.921875h.683594c23.597656-.101563 50.835937-5.351563 80.953125-15.605469 53.265625-18.136719 108.882812-50.148438 138.394531-79.660156 59.082031-59.085938 59.082031-155.222656 0-214.308594zm-356.644531 378.777344 16.902343 9.785156c1.988282 1.148438 3.820313 2.558594 5.445313 4.179688 4.972656 4.976562 7.707031 11.585937 7.707031 18.617187s-2.738281 13.640625-7.707031 18.613281c-10.265625 10.265625-26.96875 10.265625-37.230469 0-10.265625-10.265625-10.265625-26.964844 0-37.230468l-21.214844-21.214844c-10.265624 10.265625-26.964843 10.261718-37.230468 0-4.972656-4.972656-7.710938-11.582032-7.710938-18.613282s2.738282-13.644531 7.710938-18.613281c10.265625-10.265625 26.964844-10.265625 37.230468 0 1.625 1.621094 3.03125 3.453125 4.183594 5.445313l9.78125 16.898437 82.539063-82.535156c2.820312 4.515625 6.074219 8.640625 9.777343 12.351563 3.710938 3.707031 7.835938 6.960937 12.351563 9.78125zm335.429687-185.6875c-26.144531 26.144531-78.308594 55.949218-126.851562 72.476562-55.402344 18.859375-98.113282 18.746094-117.179688-.320312-19.0625-19.066406-19.179687-61.777344-.320312-117.179688 16.527344-48.542968 46.332031-100.703125 72.476562-126.847656 23.695313-23.695312 54.808594-35.539062 85.933594-35.539062 31.121094 0 62.25 11.847656 85.941406 35.539062 47.382813 47.382812 47.382813 124.488281 0 171.871094zm0 0" fill="#FFFFFF"/></svg>
