<svg viewBox="-116 0 511 511.99811" xmlns="http://www.w3.org/2000/svg"><path d="m280.289062 6.285156c-.679687-4.09375-4.542968-6.863281-8.648437-6.183594l-63.421875 10.546876c-4.8125.800781-8.730469 4.183593-10.226562 8.824218l-14.570313 45.171875h-161.535156c-6.339844 0-11.972657 3.785157-14.355469 9.640625-3.558594 8.746094-7.65625 24.828125-6.953125 51.753906.867187 33.140626 8.785156 73.570313 23.535156 120.171876 28.75 90.820312 20.765625 180.484374 14.011719 223.660156-.199219 1.273437-.402344 2.539062-.609375 3.796875-.0625.382812-.125.769531-.1875 1.140625-.324219 1.929687-.65625 3.84375-.996094 5.730468-1.414062 7.800782.691407 15.769532 5.777344 21.859376 2.839844 3.398437 6.425781 5.992187 10.417969 7.617187 3.167968 1.292969 6.59375 1.984375 10.113281 1.984375h130.058594c3.34375 0 6.601562-.628906 9.632812-1.796875 4.183594-1.613281 7.945313-4.269531 10.898438-7.808594 5.082031-6.085937 7.191406-14.054687 5.777343-21.855469-.3125-1.71875-.613281-3.464843-.910156-5.21875-.050781-.304687-.105468-.605468-.15625-.910156-1.035156-6.191406-1.976562-12.570312-2.808594-19.039062 0-.003906 0-.003906 0-.007813-1.179687-9.195312-2.140624-18.5625-2.859374-28.042969-.3125-4.140624-3.933594-7.234374-8.0625-6.925781-4.140626.3125-7.242188 3.925781-6.925782 8.0625.644532 8.484375 1.480469 16.875 2.484375 25.148438-2.011719 1.53125-4.476562 2.386719-7.070312 2.386719h-130.058594c-2.582031 0-5.03125-.847657-7.039063-2.363282 6.398438-52.007812 8.546876-130.75-17.15625-211.953125-17.816406-56.28125-22.785156-95.210937-22.855468-121.027343h16.617187l-13.050781 22.605468c-2.804688 4.863282-1.136719 11.101563 3.726562 13.910156l32.546876 18.792969c1.597656.921875 3.347656 1.359375 5.074218 1.359375 3.519532 0 6.949219-1.824218 8.835938-5.089844l18.789062-32.542968c2.808594-4.863282 1.136719-11.105469-3.726562-13.914063l-8.875-5.121093h48.285156c4.152344 0 7.515625-3.363282 7.515625-7.515626 0-4.152343-3.363281-7.515624-7.515625-7.515624h-107.648438c1.132813-13.597657 3.6875-21.730469 5.289063-25.667969.066406-.167969.238281-.273438.433594-.273438h156.683593l-8.367187 25.941407h-11.421875c-4.148438 0-7.515625 3.363281-7.515625 7.515624 0 4.152344 3.367187 7.515626 7.515625 7.515626h81.027344c-.007813 1.617187-.027344 3.28125-.074219 5-.828125 31.730468-8.511719 70.769531-22.839844 116.027343-14.671875 46.347657-21.796875 97.058594-21.1875 150.734375.050781 4.117188 3.40625 7.425782 7.515625 7.425782h.085938c4.152344-.046876 7.476562-3.449219 7.429687-7.597657-.59375-52.074219 6.296875-101.203125 20.484375-146.027343 19.789063-62.507813 24.367188-104.992188 23.472656-132.738282.003907-.113281.019532-.226562.019532-.339844 0-.320312-.027344-.632812-.066406-.941406-.757813-19.421875-4.203126-31.425781-6.839844-37.90625-2.382813-5.859375-8.019532-9.640625-14.355469-9.640625h-34.238281l12.699218-39.371093 62.195313-10.34375c4.09375-.679688 6.859375-4.550782 6.179687-8.644532zm-229.164062 476.917969c.765625-4.238281 1.542969-8.855469 2.300781-13.804687 2.910157 1.066406 6.019531 1.625 9.214844 1.625h130.058594c3.195312 0 6.308593-.5625 9.222656-1.628907.707031 4.660157 1.472656 9.265625 2.292969 13.808594.617187 3.414063-.304688 6.898437-2.527344 9.5625-1.117188 1.335937-2.492188 2.386719-4.027344 3.105469-1.53125.714844-3.222656 1.097656-4.960937 1.097656h-130.058594c-1.304687 0-2.582031-.214844-3.789063-.625-2.003906-.683594-3.804687-1.910156-5.199218-3.578125-2.226563-2.664063-3.148438-6.148437-2.527344-9.5625zm-2.585938-360.78125 24.148438 13.941406-13.941406 24.152344-24.148438-13.941406zm184.914063-42.746094c.195313 0 .367187.105469.433594.273438 1.730469 4.25 4.226562 12.394531 5.34375 25.667969h-53.234375l8.367187-25.941407zm0 0"/><path d="m117.734375 216.78125c2 1.65625 4.425781 2.460938 6.839844 2.460938 3.089843 0 6.160156-1.320313 8.28125-3.882813l28.980469-34.984375c1.832031-2.210938 2.695312-5 2.425781-7.855469-.269531-2.859375-1.632813-5.4375-3.84375-7.269531l-34.988281-28.980469c-4.558594-3.78125-11.34375-3.140625-15.121094 1.417969l-28.980469 34.988281c-1.832031 2.207031-2.691406 4.996094-2.421875 7.855469.265625 2.855469 1.632812 5.4375 3.839844 7.265625zm1.414063-66.199219 28.375 23.507813-23.503907 28.378906-28.378906-23.507812zm0 0"/><path d="m123.027344 279.277344 39.5 29.554687c1.925781 1.441407 4.214844 2.199219 6.578125 2.199219.527343 0 1.058593-.039062 1.59375-.117188 2.910156-.417968 5.488281-1.945312 7.25-4.300781l29.558593-39.503906c1.761719-2.355469 2.5-5.257813 2.082032-8.167969-.421875-2.914062-1.949219-5.492187-4.304688-7.25l-39.503906-29.558594c-4.863281-3.636718-11.78125-2.640624-15.417969 2.222657l-29.558593 39.5c-3.636719 4.863281-2.640626 11.78125 2.222656 15.421875zm36.96875-42.703125 33.074218 24.746093-24.75 33.074219-33.074218-24.746093zm0 0"/><path d="m182.640625 177.210938c.128906 0 .257813-.003907.386719-.007813l30.394531-1.203125c5.332031-.210938 9.496094-4.714844 9.285156-10.046875l-1.199219-30.402344c-.214843-5.324219-4.746093-9.480469-10.046874-9.277343l-30.394532 1.199218c-5.332031.210938-9.496094 4.71875-9.289062 10.046875l1.203125 30.394531c.203125 5.203126 4.5 9.296876 9.660156 9.296876zm24.058594-35.707032.777343 19.6875-19.691406.78125-.777344-19.691406zm0 0"/><path d="m97.433594 218.457031-31.941406 3.246094c-2.601563.265625-4.945313 1.523437-6.601563 3.554687-1.652344 2.027344-2.417969 4.574219-2.152344 7.179688l3.242188 31.9375c.265625 2.605469 1.527343 4.949219 3.554687 6.601562 1.765625 1.441407 3.925782 2.207032 6.171875 2.207032.335938 0 .671875-.019532 1.007813-.050782l31.941406-3.246093c2.605469-.265625 4.949219-1.527344 6.601562-3.554688 1.652344-2.027343 2.417969-4.578125 2.152344-7.179687l-3.242187-31.941406c-.546875-5.371094-5.363281-9.28125-10.734375-8.753907zm-23.027344 39.191407-2.1875-21.519532 21.523438-2.1875 2.1875 21.523438zm0 0"/></svg>